<?xml version="1.0" encoding="UTF-8"?>
<svg id="Capa_1" data-name="Capa 1" xmlns="http://www.w3.org/2000/svg" viewBox="0 0 256 256">
  <defs>
    <style>
      .cls-1 {
        fill: #000;
      }

      .cls-1, .cls-2, .cls-3, .cls-4, .cls-5, .cls-6, .cls-7 {
        stroke-width: 0px;
      }

      .cls-2 {
        fill: #048736;
      }

      .cls-3 {
        fill: #080808;
      }

      .cls-4 {
        fill: #fdfdfd;
      }

      .cls-5 {
        fill: #f5cd2c;
      }

      .cls-6 {
        fill: #010103;
      }

      .cls-7 {
        fill: #0a018a;
      }
    </style>
  </defs>
  <rect class="cls-1" y="0" width="256" height="256"/>
  <g>
    <rect class="cls-6" y="42.48" width="256" height="171.09"/>
    <g>
      <path class="cls-6" d="M169.68,43.32h.58c1.02,1.07,2.33.51,3.48.51,27.18.05,54.36.05,81.54.07v168.65c-.86.05-1.72.13-2.59.13-83.08,0-166.15,0-249.23.07-2.4,0-2.73-.78-2.73-2.89.05-54.37.06-108.75-.02-163.12,0-2.4.57-2.96,2.96-2.95,26.02.1,52.04.07,78.06.03.95,0,2.11.61,2.9-.49h1.74c.58,1.04,1.56.5,2.32.5,26.11.03,52.22.03,78.33,0,.88,0,1.92.48,2.64-.5ZM253.33,110.55c.07-3.83.21-7.67.2-11.5-.02-11.71-.1-23.43-.16-35.14,0-1.79-.02-3.57-.03-5.36.07-3.55.06-7.11.23-10.66.08-1.77-.53-2.3-2.3-2.3-26.02.05-52.04.05-78.05,0-1.94,0-2.43.62-2.42,2.47.05,25.69.06,51.38-.01,77.07,0,2.1.7,2.57,2.65,2.54,7.23-.1,14.45-.04,21.68-.04,18.5,0,37-.03,55.5.05,2.16,0,3.17-.41,2.97-2.82-.25-2.96-.15-5.95-.2-8.93-.02-1.8-.04-3.59-.06-5.39ZM3.21,61.78c.01,2.32.02,4.64.03,6.96-.24,4.61-.24,9.22,0,13.83-.03,2.37-.07,4.73-.1,7.1-.67,4.57-1.01,9.14.11,13.7-.05,2.35-.09,4.69-.14,7.04-1.06,4.55-.07,9.17-.51,13.73-.27,2.76.61,3.59,3.45,3.58,25.35-.11,50.69-.11,76.04-.01,2.62.01,3.19-.78,3.18-3.26-.09-23-.06-46-.05-69,0-2.37-.63-4.72-.08-7.1.45-1.93-.2-2.79-2.36-2.76-6.74.1-13.49.04-20.24.04-18.79,0-37.59,0-56.38,0-1.46,0-3.19-.49-3.11,2.1.15,4.68.11,9.37.14,14.06ZM128.33,210.81c40.78,0,81.55-.02,122.33.06,2.41,0,2.96-.56,2.96-2.96-.1-25.22-.1-50.44,0-75.66,0-2.41-.58-2.95-2.97-2.94-81.55.07-163.1.07-244.65,0-2.4,0-2.97.56-2.96,2.96.1,25.22.1,50.44,0,75.66,0,2.41.58,2.95,2.97,2.94,40.78-.08,81.55-.06,122.33-.06ZM169.1,86.62c0-12.89-.04-25.78.04-38.67.01-1.9-.51-2.37-2.39-2.36-25.72.06-51.45.07-77.17-.01-2.17,0-2.67.54-2.67,2.68.08,25.4.09,50.79,0,76.19,0,2.55.73,3.26,3.26,3.25,25.43-.09,50.87-.08,76.3,0,2.17,0,2.7-.54,2.68-2.69-.11-12.79-.05-25.59-.06-38.38Z"/>
      <path class="cls-4" d="M128.33,210.81c-40.78,0-81.55-.02-122.33.06-2.39,0-2.98-.53-2.97-2.94.1-25.22.1-50.44,0-75.66,0-2.4.55-2.96,2.96-2.96,81.55.07,163.1.07,244.65,0,2.39,0,2.98.53,2.97,2.94-.1,25.22-.1,50.44,0,75.66,0,2.4-.55,2.96-2.96,2.96-40.78-.08-81.55-.06-122.33-.06ZM20.37,163.71c.34-4.19-2.64-2.86-4.61-2.87-2.58-.02-1.35,2.13-1.38,3.25-.13,5.87-.06,11.74-.06,17.61,0,3.94,0,3.83,4.02,3.9,1.81.03,2.27-.49,2.21-2.25-.14-4.04-.15-8.08,0-12.12.13-3.46,2.56-5.57,5.81-5.4,2.83.14,3.89,1.64,3.9,5.52,0,3.37,0,6.74,0,10.1,0,4.22,0,4.14,4.3,4.14,1.58,0,2.17-.34,2.12-2.04-.13-3.94-.09-7.89-.02-11.83.07-3.72,2.09-5.91,5.27-5.88,3.07.02,4.46,1.73,4.51,5.71.05,4.04.09,8.08-.02,12.12-.04,1.54.43,2.08,1.93,1.91.86-.1,1.74-.08,2.6,0,1.23.1,1.7-.32,1.67-1.62-.11-5.29.12-10.6-.25-15.86-.39-5.55-4.11-8.27-9.67-7.83-3,.24-5.24,1.64-6.94,4.06-3.91-5.43-10.78-5.35-15.41-.61ZM117.31,175.35c2.6,0,5.21-.08,7.8.03,1.4.06,1.77-.4,1.81-1.78.24-9.23-6.05-14.74-15.02-13.07-5.22.97-9.38,5.36-10.01,10.56-.76,6.32,1.85,11.39,7.1,13.78,5.28,2.41,12.2,1.35,15.54-2.4.4-.45,1.32-.92.56-1.62-1.05-.97-2.18-1.95-3.45-2.57-1.01-.49-1.49.84-2.19,1.35-3.77,2.76-8.83,1.94-10.76-1.79-.79-1.53-1.12-2.68,1.39-2.53,2.4.15,4.82.03,7.22.04ZM71.78,175.35c2.6,0,5.2-.01,7.8,0,.94,0,1.54-.07,1.7-1.32.95-7.23-4.17-13.54-11.34-13.81-6.29-.24-11.45,3.29-13.21,9.03-1.76,5.75.43,11.93,5.26,14.89,5.16,3.16,12.5,2.58,16.64-1.36.49-.47,1.64-1,.96-1.77-1-1.13-2.26-2.15-3.6-2.84-1.03-.53-1.4.94-2.11,1.44-3.85,2.73-8.75,1.97-10.78-1.77-.89-1.64-.95-2.66,1.44-2.53,2.4.13,4.81.03,7.22.03ZM142.58,186.12c8.04.04,13.5-5.13,13.57-12.84.07-7.62-5.57-13.11-13.41-13.06-7.85.04-13.61,5.59-13.56,13.04.05,7.4,5.7,12.82,13.4,12.86ZM215.7,182.12c-.74,4.5,1.94,3.23,3.72,3.43,2.73.31,1.67-1.75,1.7-2.88.1-4.23.13-8.46,0-12.69-.09-3.25-.81-6.32-3.89-8.2-4.15-2.55-12.42-1.86-16.08,1.33-.4.35-1.03.57-.86,1.32.33,1.44,3.13,2.7,4.42,1.94,2.62-1.53,5.34-2.13,8.24-.89,1.66.71,2.75,2.11,2.48,3.84-.29,1.84-2.05.83-3.11.86-3.48.12-6.92.31-10.07,1.98-2.74,1.45-3.91,3.81-3.81,6.88.1,3.05,1.67,5.13,4.38,6.17,4.55,1.74,8.84,1.43,12.87-3.09ZM100.05,180.38c-.46.11-.9.25-1.36.32-4.1.62-5.29-.38-5.3-4.47,0-2.69.1-5.39-.04-8.08-.09-1.69.54-2.25,2.13-2.06.66.08,1.35-.05,2.02.03,1.92.23,2.94-.09,2.86-2.51-.07-2.19-.5-2.98-2.84-2.87-4.13.2-4.14.04-4.14-3.98,0-.67,0-1.35,0-2.02,0-.48,0-1.06-.63-1.07-1.73-.02-3.58-.32-5.14.21-1,.34-.27,2.1-.41,3.21-.05.38-.06.78,0,1.15.31,1.95-.37,2.95-2.46,2.55-2.41-.46-2.74.73-2.84,2.86-.12,2.53,1.14,2.69,2.95,2.44,1.93-.27,2.46.53,2.38,2.4-.14,3.36-.13,6.73-.02,10.1.18,5.57,2.29,7.62,7.89,7.52,5.84-.11,5.46-.02,4.94-5.72ZM228.91,172.82s-.06,0-.08,0c.09,1.91.15,3.83.29,5.74.46,6.44,5.77,9.72,11.76,7.18,2.26-.96.99-3.05,1-4.55,0-1.8-1.46-.38-2.07-.35-3.43.17-4.61-.73-4.7-4.14-.05-2.02-.01-4.03-.01-6.05,0-4.49,0-4.62,4.47-4.49,2.14.06,2.49-.72,2.48-2.62-.01-1.93-.18-2.93-2.58-2.83-4.36.19-4.37.02-4.38-4.28,0-.58,0-1.15,0-1.73,0-.49-.02-1.04-.66-1.05-1.73,0-3.58-.31-5.13.22-.96.33-.44,2.12-.36,3.21.19,2.53-.06,4.36-3.38,3.71-2.14-.42-1.75,1.3-1.62,2.41.12,1.08-.97,3.19,1.47,2.84,3.36-.48,3.89,1.15,3.51,3.88-.13.94-.02,1.92-.02,2.88ZM196.33,182.78c-.23-.3-.45-.61-.71-.89-1.72-1.94-3.02-4.12-6.36-1.76-2.34,1.65-6.05-.03-7.78-2.57-1.97-2.9-1.76-6.69.52-9.36,1.91-2.24,5.42-3.43,7.47-1.72,2.86,2.39,4.03.44,5.73-1.21,1.14-1.11,1.05-1.66-.19-2.61-5.98-4.61-15.96-2.49-19.53,4.24-2.91,5.49-1.64,12.39,3,16.25,4.99,4.16,12.37,4.03,17.85-.36ZM168.09,182.16c.12-2.21-1.52-4.08-3.73-4.28-2.18-.19-4.44,1.77-4.52,3.92-.08,1.96,1.94,4.06,4.01,4.16,2.13.11,4.13-1.68,4.24-3.81Z"/>
      <path class="cls-7" d="M3.25,82.57c-.24-4.61-.24-9.22,0-13.83,12.33,0,24.66-.05,36.99.03,1.79.01,2.48-.44,2.2-2.23-.1-.66-.11-1.36,0-2.01.41-2.33-.62-2.8-2.81-2.78-12.14.1-24.28.04-36.42.04-.04-4.69,0-9.38-.14-14.06-.08-2.58,1.65-2.1,3.11-2.1,18.79-.01,37.59,0,56.38,0,6.75,0,13.49.07,20.24-.04,2.16-.03,2.81.83,2.36,2.76-.56,2.38.08,4.73.08,7.1-.01,23-.05,46,.05,69,0,2.48-.55,3.27-3.18,3.26-25.35-.1-50.69-.1-76.04.01-2.84.01-3.71-.83-3.45-3.58.44-4.56-.55-9.18.51-13.73,11.55.05,23.1.11,34.64.15,4.7.02,4.59,0,4.71-4.64.05-2.03-.51-2.54-2.54-2.53-12.22.08-24.45,0-36.67-.02-1.13-4.56-.78-9.12-.12-13.7,11.56.03,23.12.07,34.68.09,4.64.01,4.52,0,4.65-4.7.06-2.03-.49-2.54-2.52-2.53-12.23.1-24.47.04-36.7.03Z"/>
      <path class="cls-5" d="M169.1,86.62c0,12.79-.05,25.59.06,38.38.02,2.15-.51,2.7-2.68,2.69-25.43-.08-50.87-.09-76.3,0-2.53,0-3.27-.7-3.26-3.25.09-25.4.08-50.79,0-76.19,0-2.14.49-2.69,2.67-2.68,25.72.08,51.45.07,77.17.01,1.88,0,2.41.47,2.39,2.36-.08,12.89-.04,25.78-.04,38.67ZM128.36,105.68c2.29.37,4.9-.54,7.31-1.59,10.87-4.76,14.7-17.02,8.63-27.23-.49-.82-1.44-1.79-.22-2.36,4.2-1.97,6.35-6.15,9.89-8.79,1.67-1.25.9-2.28-.17-3.21-1.17-1.01-2.16-3.34-4.16-1.46-3.04,2.85-6.1,5.75-8.69,9-1.19,1.49-1.74,1.39-3.05.58-5.3-3.27-10.97-3.68-16.75-1.59-7.88,2.85-13.67,12.53-11.95,20.62,2,9.42,8.59,15.63,19.18,16.03ZM115.97,70.8c-.81-.98-1.18-1.52-1.64-1.98-2.33-2.34-4.65-4.69-7.03-6.98-.68-.66-1.23-2.17-2.47-1.28-1.36.97-2.88,1.9-3.64,3.52-.25.54.27.8.62,1.13,2.73,2.66,5.4,5.37,8.15,8.01.55.52,1.1,1.61,2.13.83,1.35-1.02,2.6-2.17,3.88-3.25ZM144.62,99.48c-1.29.62-2.32,1.9-3.33,3.1-.84,1,.12,1.67.82,2.36,2.03,1.98,3.97,4.05,6.03,5.99,2.97,2.8,2.95,2.71,5.79,0,1.24-1.19,1.33-2.01,0-3.19-2.63-2.33-5.15-4.77-7.66-7.22-.42-.41-.75-.85-1.65-1.04ZM115.35,103.28c-.91-1.52-2.1-2.67-3.44-3.52-.98-.62-1.67.4-2.35,1.09-2.32,2.35-4.66,4.68-7.02,6.99-2.04,2,.12,2.97,1.04,4.19.89,1.18,1.78,1.84,3.17.33,2.45-2.65,5.1-5.13,7.65-7.7.38-.39.63-.91.95-1.38ZM125.15,114.38c0,1.82.13,3.66-.03,5.47-.21,2.44,1.43,2.05,2.8,1.96,1.32-.09,3.28.86,3.18-1.9-.12-3.45-.11-6.92.02-10.37.07-1.98-.59-2.53-2.6-2.69-2.88-.23-3.79.76-3.42,3.5.18,1.32.03,2.68.04,4.03ZM156.15,83.76c-1.92,0-3.84.09-5.75-.03-1.77-.11-2.25.78-1.95,2.25.27,1.34-1.12,3.61,1.74,3.66,3.83.07,7.67.02,11.5.01.8,0,1.4-.1,1.62-1.16.77-3.75.04-4.76-3.72-4.75-1.15,0-2.3,0-3.45,0ZM100.32,83.75c-1.83,0-3.67.13-5.48-.03-2.67-.23-2,1.61-2.05,3.02-.05,1.52-.37,3.1,2.17,2.96,3.46-.18,6.93-.13,10.39,0,1.93.07,2.3-.67,2.43-2.49.19-2.74-.53-3.94-3.42-3.5-1.32.2-2.69.03-4.04.04ZM125.15,58.97c0,1.83.13,3.67-.03,5.48-.22,2.49,1.5,1.98,2.83,1.92,1.34-.06,3.28.8,3.19-1.92-.12-3.46-.2-6.94.01-10.39.17-2.82-1.59-2.44-3.32-2.56-1.93-.13-2.9.43-2.7,2.56.15,1.62.03,3.27.03,4.91Z"/>
      <path class="cls-2" d="M253.39,115.94c.05,2.98-.04,5.97.2,8.93.2,2.41-.81,2.83-2.97,2.82-18.5-.08-37-.05-55.5-.05-7.23,0-14.46-.06-21.68.04-1.95.03-2.66-.45-2.65-2.54.07-25.69.06-51.38.01-77.07,0-1.85.49-2.48,2.42-2.47,26.02.06,52.04.05,78.05,0,1.77,0,2.38.53,2.3,2.3-.17,3.55-.16,7.11-.23,10.66-.44-.18-.89-.37-1.33-.55-9.67-3.85-22.46.16-25.65,9.85-.42,1.27-1.24,1.43-2.38,1.56-3.27.37-6.42,1.26-9.27,2.93-3.31,1.94-5.98,4.67-5.84,8.65.1,2.74-1,3.38-3.19,4.2-8.17,3.03-12.08,11.16-9.13,18.46,2.81,6.95,11.47,11.25,20.23,9.91,1.46-.22,2.41-.07,3.59.94,7.06,6.04,17.19,6.78,24.88,1.5,2.43-1.67,4.2-2.48,6.48-.25.44.43,1.06.38,1.64.18Z"/>
      <path class="cls-2" d="M253.37,63.91c.06,11.71.14,23.43.16,35.14,0,3.83-.13,7.67-.2,11.5-2.1-1.38-3.47-3.51-5.25-5.22-.27.26-.52.43-.68.66-7.6,10.54-16.45,11.35-25.56,2.26-.93-.93-1.72-.91-2.81-.53-3.36,1.17-6.76,1.27-10.19.25-4.58-1.36-7.94-5.11-8.08-9.08-.15-4.15,2.41-7.16,7.53-8.96,2.63-.92,5.44-1,8.27-1.63-.32-.65-.55-1.16-.82-1.66-3.15-5.96-1.76-9.16,4.77-11.19,2.42-.75,4.9-1.16,7.38-.99,2.11.14,2.73-.66,3.09-2.64,1.15-6.18,5.58-9.64,11.86-10.14,3.82-.3,7.1,1.17,10.54,2.24Z"/>
      <path class="cls-4" d="M253.37,63.91c-3.44-1.07-6.71-2.55-10.54-2.24-6.28.5-10.72,3.96-11.86,10.14-.37,1.98-.98,2.78-3.09,2.64-2.49-.17-4.96.24-7.38.99-6.52,2.02-7.92,5.23-4.77,11.19.26.5.5,1.01.82,1.66-2.83.64-5.63.71-8.27,1.63-5.13,1.8-7.69,4.82-7.53,8.96.15,3.97,3.5,7.72,8.08,9.08,3.43,1.02,6.83.92,10.19-.25,1.09-.38,1.89-.4,2.81.53,9.11,9.09,17.96,8.28,25.56-2.26.17-.23.41-.4.68-.66,1.78,1.72,3.14,3.85,5.25,5.22.02,1.8.04,3.59.06,5.39-.58.2-1.2.25-1.64-.18-2.28-2.23-4.05-1.42-6.48.25-7.68,5.28-17.82,4.54-24.88-1.5-1.18-1.01-2.13-1.16-3.59-.94-8.76,1.34-17.42-2.97-20.23-9.91-2.96-7.3.95-15.43,9.13-18.46,2.19-.81,3.28-1.46,3.19-4.2-.14-3.98,2.53-6.71,5.84-8.65,2.85-1.67,6-2.57,9.27-2.93,1.14-.13,1.96-.29,2.38-1.56,3.19-9.69,15.98-13.7,25.65-9.85.45.18.89.37,1.33.55,0,1.79.02,3.57.03,5.36Z"/>
      <path class="cls-4" d="M3.25,82.57c12.24,0,24.47.06,36.7-.03,2.03-.02,2.58.5,2.52,2.53-.13,4.7-.01,4.71-4.65,4.7-11.56-.03-23.12-.06-34.68-.09.03-2.37.07-4.73.1-7.1Z"/>
      <path class="cls-4" d="M3.21,61.78c12.14,0,24.28.06,36.42-.04,2.19-.02,3.22.45,2.81,2.78-.11.65-.1,1.36,0,2.01.28,1.79-.41,2.24-2.2,2.23-12.33-.08-24.66-.03-36.99-.03,0-2.32-.02-4.64-.03-6.96Z"/>
      <path class="cls-4" d="M3.26,103.37c12.23.02,24.45.1,36.67.02,2.03-.01,2.59.5,2.54,2.53-.12,4.64,0,4.66-4.71,4.64-11.55-.04-23.1-.1-34.64-.15.05-2.34.09-4.69.14-7.04Z"/>
      <path class="cls-3" d="M20.37,163.71c4.63-4.74,11.5-4.82,15.41.61,1.7-2.42,3.94-3.82,6.94-4.06,5.56-.45,9.28,2.28,9.67,7.83.37,5.27.14,10.57.25,15.86.03,1.29-.44,1.72-1.67,1.62-.86-.07-1.74-.1-2.6,0-1.5.17-1.97-.37-1.93-1.91.11-4.04.07-8.08.02-12.12-.05-3.98-1.44-5.69-4.51-5.71-3.18-.02-5.21,2.16-5.27,5.88-.07,3.94-.11,7.89.02,11.83.06,1.7-.54,2.04-2.12,2.04-4.3,0-4.3.08-4.3-4.14,0-3.37,0-6.74,0-10.1-.01-3.88-1.07-5.37-3.9-5.52-3.26-.17-5.68,1.94-5.81,5.4-.15,4.04-.14,8.08,0,12.12.06,1.77-.4,2.29-2.21,2.25-4.02-.07-4.02.04-4.02-3.9,0-5.87-.07-11.74.06-17.61.03-1.12-1.2-3.27,1.38-3.25,1.97.01,4.95-1.33,4.61,2.87Z"/>
      <path class="cls-3" d="M117.31,175.35c-2.41,0-4.82.11-7.22-.04-2.51-.16-2.18,1-1.39,2.53,1.93,3.73,6.98,4.55,10.76,1.79.7-.51,1.18-1.84,2.19-1.35,1.27.62,2.4,1.6,3.45,2.57.76.7-.15,1.17-.56,1.62-3.35,3.75-10.27,4.81-15.54,2.4-5.25-2.4-7.86-7.46-7.1-13.78.62-5.19,4.78-9.59,10.01-10.56,8.97-1.67,15.25,3.84,15.02,13.07-.04,1.38-.41,1.84-1.81,1.78-2.6-.11-5.2-.03-7.8-.03ZM113.99,170.81c1.54,0,3.08-.11,4.61.03,2.2.19,2.11-.88,1.56-2.41-.86-2.43-2.9-3.3-5.13-3.58-2.42-.3-4.55.58-5.98,2.68-.58.85-1.35,1.93-.88,2.87.47.95,1.74.32,2.66.4,1.05.09,2.11.02,3.17.03Z"/>
      <path class="cls-3" d="M71.78,175.35c-2.41,0-4.82.1-7.22-.03-2.39-.13-2.33.89-1.44,2.53,2.03,3.74,6.93,4.5,10.78,1.77.71-.5,1.08-1.97,2.11-1.44,1.34.69,2.6,1.71,3.6,2.84.68.77-.47,1.3-.96,1.77-4.14,3.94-11.48,4.52-16.64,1.36-4.83-2.96-7.02-9.14-5.26-14.89,1.75-5.74,6.92-9.27,13.21-9.03,7.16.28,12.29,6.59,11.34,13.81-.16,1.25-.76,1.32-1.7,1.32-2.6-.02-5.2,0-7.8,0ZM68.72,170.8s0,0,0,0c1.43,0,2.88-.12,4.3.03,2.21.23,2.15-.99,1.58-2.39-1.06-2.64-3.33-3.66-5.95-3.64-2.68.02-4.74,1.34-5.8,3.91-.63,1.53-.26,2.28,1.58,2.11,1.42-.14,2.86-.03,4.3-.03Z"/>
      <path class="cls-3" d="M142.58,186.12c-7.7-.04-13.35-5.46-13.4-12.86-.05-7.46,5.71-13,13.56-13.04,7.84-.04,13.48,5.45,13.41,13.06-.07,7.71-5.53,12.88-13.57,12.84ZM149.98,173.34c.07-4.23-2.92-7.44-7.01-7.53-4.2-.09-7.32,2.89-7.41,7.09-.1,4.46,2.84,7.65,7.11,7.72,4.05.07,7.24-3.11,7.31-7.28Z"/>
      <path class="cls-3" d="M215.7,182.12c-4.03,4.52-8.32,4.84-12.87,3.09-2.71-1.04-4.28-3.12-4.38-6.17-.1-3.07,1.08-5.43,3.81-6.88,3.14-1.67,6.59-1.86,10.07-1.98,1.06-.04,2.82.98,3.11-.86.27-1.73-.82-3.13-2.48-3.84-2.89-1.24-5.62-.64-8.24.89-1.29.76-4.09-.5-4.42-1.94-.17-.75.46-.97.86-1.32,3.67-3.19,11.93-3.87,16.08-1.33,3.07,1.88,3.79,4.95,3.89,8.2.12,4.23.09,8.46,0,12.69-.03,1.13,1.02,3.19-1.7,2.88-1.78-.2-4.46,1.07-3.72-3.43ZM212.32,174.47c-2.02.05-4.03.26-5.85,1.2-2.32,1.2-2.52,3.59-.5,5.02,2.84,2.01,7.69.49,8.86-2.77,1.04-2.89.59-3.5-2.52-3.45Z"/>
      <path class="cls-3" d="M100.05,180.38c.52,5.7.9,5.61-4.94,5.72-5.61.11-7.71-1.94-7.89-7.52-.11-3.36-.12-6.74.02-10.1.08-1.86-.46-2.67-2.38-2.4-1.81.25-3.07.09-2.95-2.44.1-2.13.43-3.32,2.84-2.86,2.1.4,2.77-.6,2.46-2.55-.06-.38-.05-.77,0-1.15.15-1.11-.59-2.87.41-3.21,1.56-.53,3.41-.23,5.14-.21.62,0,.63.59.63,1.07,0,.67,0,1.35,0,2.02,0,4.02,0,4.18,4.14,3.98,2.34-.11,2.77.68,2.84,2.87.08,2.42-.94,2.74-2.86,2.51-.66-.08-1.35.05-2.02-.03-1.6-.19-2.22.37-2.13,2.06.14,2.69.03,5.38.04,8.08.01,4.09,1.2,5.1,5.3,4.47.46-.07.9-.21,1.36-.32Z"/>
      <path class="cls-3" d="M228.91,172.82c0-.96-.11-1.94.02-2.88.37-2.73-.16-4.36-3.51-3.88-2.44.35-1.35-1.76-1.47-2.84-.12-1.12-.52-2.83,1.62-2.41,3.32.65,3.58-1.18,3.38-3.71-.08-1.09-.6-2.88.36-3.21,1.55-.53,3.41-.23,5.13-.22.63,0,.65.56.66,1.05,0,.58,0,1.15,0,1.73,0,4.3.02,4.47,4.38,4.28,2.4-.1,2.57.89,2.58,2.83.01,1.9-.34,2.68-2.48,2.62-4.47-.12-4.47,0-4.47,4.49,0,2.02-.04,4.04.01,6.05.09,3.41,1.27,4.31,4.7,4.14.61-.03,2.08-1.45,2.07.35,0,1.5,1.26,3.59-1,4.55-5.99,2.53-11.31-.74-11.76-7.18-.14-1.91-.19-3.83-.29-5.74.03,0,.06,0,.08,0Z"/>
      <path class="cls-3" d="M196.33,182.78c-5.47,4.39-12.86,4.52-17.85.36-4.64-3.87-5.91-10.76-3-16.25,3.57-6.73,13.55-8.85,19.53-4.24,1.24.96,1.34,1.51.19,2.61-1.7,1.65-2.87,3.6-5.73,1.21-2.05-1.71-5.56-.52-7.47,1.72-2.28,2.68-2.49,6.47-.52,9.36,1.73,2.54,5.44,4.23,7.78,2.57,3.34-2.36,4.64-.17,6.36,1.76.25.28.47.59.71.89Z"/>
      <path class="cls-3" d="M168.09,182.16c-.11,2.13-2.1,3.92-4.24,3.81-2.07-.11-4.08-2.2-4.01-4.16.08-2.15,2.34-4.11,4.52-3.92,2.21.19,3.84,2.07,3.73,4.28Z"/>
      <path class="cls-4" d="M128.36,105.68c-10.59-.4-17.19-6.62-19.18-16.03-1.71-8.09,4.08-17.77,11.95-20.62,5.78-2.09,11.44-1.68,16.75,1.59,1.31.81,1.86.91,3.05-.58,2.59-3.24,5.65-6.14,8.69-9,2-1.88,2.99.45,4.16,1.46,1.07.92,1.84,1.95.17,3.21-3.53,2.64-5.68,6.82-9.89,8.79-1.22.57-.27,1.54.22,2.36,6.07,10.22,2.24,22.48-8.63,27.23-2.41,1.05-5.01,1.96-7.31,1.59ZM128.18,74.43c-6.36-.65-12.78,6.05-12.57,12.37.21,6.23,4.59,12.35,12.38,12.34,7.76,0,12.56-5.13,12.72-12.5.13-6.21-6.24-12.95-12.53-12.21Z"/>
      <path class="cls-4" d="M115.97,70.8c-1.28,1.08-2.53,2.23-3.88,3.25-1.02.78-1.58-.3-2.13-.83-2.75-2.64-5.43-5.35-8.15-8.01-.35-.34-.87-.59-.62-1.13.76-1.62,2.28-2.55,3.64-3.52,1.24-.89,1.79.62,2.47,1.28,2.38,2.29,4.7,4.64,7.03,6.98.46.46.83,1,1.64,1.98Z"/>
      <path class="cls-4" d="M144.62,99.48c.89.2,1.23.64,1.65,1.04,2.52,2.45,5.04,4.89,7.66,7.22,1.33,1.18,1.25,2,0,3.19-2.84,2.7-2.82,2.79-5.79,0-2.06-1.94-4-4.01-6.03-5.99-.7-.68-1.66-1.36-.82-2.36,1.01-1.2,2.04-2.48,3.33-3.1Z"/>
      <path class="cls-4" d="M115.35,103.28c-.32.47-.57.99-.95,1.38-2.54,2.57-5.19,5.04-7.65,7.7-1.39,1.5-2.28.84-3.17-.33-.92-1.23-3.08-2.19-1.04-4.19,2.36-2.31,4.7-4.64,7.02-6.99.68-.68,1.37-1.71,2.35-1.09,1.35.85,2.53,2,3.44,3.52Z"/>
      <path class="cls-4" d="M125.15,114.38c0-1.34.15-2.71-.03-4.03-.38-2.74.53-3.73,3.42-3.5,2.01.16,2.67.71,2.6,2.69-.13,3.45-.14,6.92-.02,10.37.09,2.75-1.86,1.81-3.18,1.9-1.37.1-3.02.48-2.8-1.96.16-1.81.03-3.65.03-5.47Z"/>
      <path class="cls-4" d="M156.15,83.75c1.15,0,2.3,0,3.45,0,3.75-.01,4.49,1,3.72,4.75-.22,1.06-.82,1.16-1.62,1.16-3.83,0-7.67.05-11.5-.01-2.86-.05-1.47-2.32-1.74-3.66-.3-1.47.18-2.36,1.95-2.25,1.91.12,3.83.03,5.75.02Z"/>
      <path class="cls-4" d="M100.32,83.75c1.35,0,2.72.16,4.04-.04,2.9-.44,3.61.76,3.42,3.5-.13,1.83-.5,2.56-2.43,2.49-3.46-.12-6.94-.18-10.39,0-2.54.14-2.22-1.45-2.17-2.96.04-1.41-.62-3.26,2.05-3.02,1.82.16,3.66.03,5.48.03Z"/>
      <path class="cls-4" d="M125.15,58.97c0-1.64.12-3.28-.03-4.91-.2-2.13.78-2.69,2.7-2.56,1.74.12,3.5-.26,3.32,2.56-.21,3.45-.13,6.93-.01,10.39.09,2.72-1.84,1.86-3.19,1.92-1.32.06-3.05.57-2.83-1.92.16-1.81.03-3.65.03-5.48Z"/>
      <path class="cls-4" d="M113.99,170.81c-1.06,0-2.12.07-3.17-.02-.91-.08-2.18.55-2.66-.4-.47-.94.3-2.01.88-2.87,1.43-2.09,3.56-2.98,5.98-2.68,2.23.28,4.27,1.15,5.13,3.58.54,1.53.64,2.61-1.56,2.41-1.53-.13-3.07-.03-4.61-.03Z"/>
      <path class="cls-4" d="M68.72,170.8c-1.43,0-2.88-.11-4.3.03-1.84.18-2.21-.58-1.58-2.11,1.06-2.57,3.13-3.89,5.8-3.91,2.63-.02,4.89.99,5.95,3.64.56,1.4.63,2.62-1.58,2.39-1.42-.15-2.86-.03-4.3-.03,0,0,0,0,0,0Z"/>
      <path class="cls-4" d="M149.98,173.34c-.07,4.17-3.27,7.35-7.31,7.28-4.27-.07-7.2-3.26-7.11-7.72.09-4.2,3.2-7.18,7.41-7.09,4.09.09,7.08,3.3,7.01,7.53Z"/>
      <path class="cls-4" d="M212.32,174.47c3.1-.05,3.55.56,2.52,3.44-1.17,3.26-6.02,4.78-8.86,2.77-2.03-1.43-1.83-3.83.5-5.02,1.82-.94,3.83-1.14,5.85-1.2Z"/>
      <path class="cls-5" d="M128.18,74.43c6.29-.74,12.66,6,12.53,12.21-.16,7.37-4.96,12.49-12.72,12.5-7.78,0-12.17-6.11-12.38-12.34-.21-6.33,6.21-13.02,12.57-12.37Z"/>
    </g>
    <rect class="cls-6" x="2.53" y="128.03" width="251.09" height="1.96"/>
    <rect class="cls-6" x="85.29" y="44.38" width="1.93" height="84.39"/>
    <rect class="cls-6" x="168.37" y="44.38" width="2.06" height="83.8"/>
  </g>
</svg>