<svg width="390" height="113" viewBox="0 0 390 113" fill="none" xmlns="http://www.w3.org/2000/svg">
<path d="M36 87.408C34.912 87.856 33.6 88.368 32.064 88.944C30.528 89.52 28.864 89.968 27.072 90.288C25.344 90.672 23.584 90.864 21.792 90.864C19.424 90.864 17.248 90.448 15.264 89.616C13.28 88.784 11.68 87.472 10.464 85.68C9.312 83.824 8.736 81.424 8.736 78.48V49.584H2.112V39.696H8.736V23.376H21.6V39.696H32.16V49.584H21.6V74.16C21.664 75.888 22.144 77.136 23.04 77.904C23.936 78.672 25.056 79.056 26.4 79.056C27.744 79.056 29.056 78.832 30.336 78.384C31.616 77.936 32.64 77.552 33.408 77.232L36 87.408ZM77.0678 90L62.3798 68.304L55.5638 75.024V90H42.6998V19.92H55.5638V62.352L75.8198 39.792H89.4518L70.7318 61.104L90.7958 90H77.0678ZM126.183 50.832C122.279 50.832 118.791 51.6 115.719 53.136C112.647 54.608 110.439 56.752 109.095 59.568V90H96.231V39.696H108.039V50.448C109.831 46.992 112.103 44.272 114.855 42.288C117.607 40.304 120.519 39.216 123.591 39.024C124.295 39.024 124.839 39.024 125.223 39.024C125.607 39.024 125.927 39.056 126.183 39.12V50.832ZM156.028 90.96C151.996 90.96 148.348 90.288 145.084 88.944C141.82 87.536 139.036 85.648 136.732 83.28C134.428 80.848 132.636 78.096 131.356 75.024C130.14 71.888 129.532 68.592 129.532 65.136C129.532 60.336 130.588 55.952 132.7 51.984C134.876 48.016 137.948 44.848 141.916 42.48C145.948 40.048 150.684 38.832 156.124 38.832C161.628 38.832 166.332 40.048 170.236 42.48C174.14 44.848 177.116 48.016 179.164 51.984C181.276 55.888 182.332 60.112 182.332 64.656C182.332 65.424 182.3 66.224 182.236 67.056C182.172 67.824 182.108 68.464 182.044 68.976H143.164C143.42 71.536 144.156 73.776 145.372 75.696C146.652 77.616 148.252 79.088 150.172 80.112C152.156 81.072 154.268 81.552 156.508 81.552C159.068 81.552 161.468 80.944 163.708 79.728C166.012 78.448 167.58 76.784 168.412 74.736L179.452 77.808C178.236 80.368 176.476 82.64 174.172 84.624C171.932 86.608 169.276 88.176 166.204 89.328C163.132 90.416 159.74 90.96 156.028 90.96ZM142.876 60.816H169.18C168.924 58.256 168.188 56.048 166.972 54.192C165.82 52.272 164.284 50.8 162.364 49.776C160.444 48.688 158.3 48.144 155.932 48.144C153.628 48.144 151.516 48.688 149.596 49.776C147.74 50.8 146.204 52.272 144.988 54.192C143.836 56.048 143.132 58.256 142.876 60.816ZM190.073 19.92H202.937V73.872C202.937 76.176 203.321 77.744 204.089 78.576C204.857 79.344 205.913 79.728 207.257 79.728C208.281 79.728 209.337 79.6 210.425 79.344C211.513 79.088 212.473 78.768 213.305 78.384L215.033 88.176C213.305 89.008 211.289 89.648 208.984 90.096C206.681 90.544 204.601 90.768 202.745 90.768C198.713 90.768 195.577 89.712 193.337 87.6C191.161 85.424 190.073 82.352 190.073 78.384V19.92ZM275.4 75.12C275.4 71.856 276.296 69.008 278.088 66.576C279.944 64.08 282.504 62.16 285.768 60.816C289.032 59.472 292.776 58.8 297 58.8C299.112 58.8 301.256 58.96 303.432 59.28C305.608 59.6 307.496 60.112 309.096 60.816V58.128C309.096 54.928 308.136 52.464 306.216 50.736C304.36 49.008 301.576 48.144 297.864 48.144C295.112 48.144 292.488 48.624 289.992 49.584C287.496 50.544 284.872 51.952 282.12 53.808L277.992 45.36C281.32 43.184 284.712 41.552 288.168 40.464C291.688 39.376 295.368 38.832 299.208 38.832C306.376 38.832 311.944 40.624 315.912 44.208C319.944 47.792 321.96 52.912 321.96 59.568V75.6C321.96 76.944 322.184 77.904 322.632 78.48C323.144 79.056 323.944 79.408 325.032 79.536V90C323.88 90.192 322.824 90.352 321.864 90.48C320.968 90.608 320.2 90.672 319.56 90.672C317 90.672 315.048 90.096 313.704 88.944C312.424 87.792 311.624 86.384 311.304 84.72L311.016 82.128C308.84 84.944 306.12 87.12 302.856 88.656C299.592 90.192 296.264 90.96 292.872 90.96C289.544 90.96 286.536 90.288 283.848 88.944C281.224 87.536 279.144 85.648 277.608 83.28C276.136 80.848 275.4 78.128 275.4 75.12ZM306.696 77.712C307.4 76.944 307.976 76.176 308.424 75.408C308.872 74.64 309.096 73.936 309.096 73.296V68.208C307.56 67.568 305.896 67.088 304.104 66.768C302.312 66.384 300.616 66.192 299.016 66.192C295.688 66.192 292.936 66.928 290.76 68.4C288.648 69.808 287.592 71.696 287.592 74.064C287.592 75.344 287.944 76.56 288.648 77.712C289.352 78.864 290.376 79.792 291.72 80.496C293.064 81.2 294.664 81.552 296.52 81.552C298.44 81.552 300.328 81.2 302.184 80.496C304.04 79.728 305.544 78.8 306.696 77.712ZM330.909 64.848C330.909 59.984 331.869 55.6 333.789 51.696C335.709 47.728 338.365 44.592 341.757 42.288C345.149 39.984 349.021 38.832 353.373 38.832C357.085 38.832 360.413 39.76 363.357 41.616C366.365 43.408 368.701 45.712 370.365 48.528V19.92H383.229V75.6C383.229 76.944 383.453 77.904 383.901 78.48C384.349 79.056 385.117 79.408 386.205 79.536V90C383.965 90.448 382.141 90.672 380.733 90.672C378.429 90.672 376.509 90.096 374.973 88.944C373.501 87.792 372.669 86.288 372.477 84.432L372.285 81.264C370.429 84.4 367.901 86.8 364.701 88.464C361.565 90.128 358.269 90.96 354.813 90.96C351.357 90.96 348.157 90.288 345.213 88.944C342.333 87.6 339.805 85.744 337.629 83.376C335.517 81.008 333.853 78.256 332.637 75.12C331.485 71.92 330.909 68.496 330.909 64.848ZM370.365 71.568V59.568C369.725 57.712 368.701 56.048 367.293 54.576C365.885 53.104 364.317 51.952 362.589 51.12C360.861 50.224 359.133 49.776 357.405 49.776C355.421 49.776 353.629 50.192 352.029 51.024C350.429 51.856 349.021 52.976 347.805 54.384C346.653 55.792 345.757 57.424 345.117 59.28C344.541 61.136 344.253 63.088 344.253 65.136C344.253 67.184 344.573 69.136 345.213 70.992C345.917 72.784 346.909 74.352 348.189 75.696C349.469 77.04 350.941 78.096 352.605 78.864C354.333 79.632 356.189 80.016 358.173 80.016C359.389 80.016 360.605 79.824 361.821 79.44C363.101 78.992 364.285 78.416 365.373 77.712C366.525 76.944 367.517 76.048 368.349 75.024C369.245 73.936 369.917 72.784 370.365 71.568Z" fill="#DEE1E4"/>
<path d="M243.869 90.96C239.773 90.96 236.093 90.288 232.829 88.944C229.565 87.536 226.781 85.616 224.477 83.184C222.237 80.752 220.509 77.968 219.293 74.832C218.077 71.696 217.469 68.4 217.469 64.944C217.469 61.424 218.077 58.096 219.293 54.96C220.509 51.824 222.237 49.04 224.477 46.608C226.781 44.176 229.565 42.288 232.829 40.944C236.093 39.536 239.773 38.832 243.869 38.832C247.965 38.832 251.613 39.536 254.813 40.944C258.077 42.288 260.861 44.176 263.165 46.608C265.469 49.04 267.197 51.824 268.349 54.96C269.565 58.096 270.173 61.424 270.173 64.944C270.173 68.4 269.565 71.696 268.349 74.832C267.197 77.968 265.469 80.752 263.165 83.184C260.925 85.616 258.173 87.536 254.909 88.944C251.645 90.288 247.965 90.96 243.869 90.96ZM230.717 64.944C230.717 67.888 231.293 70.512 232.445 72.816C233.597 75.056 235.165 76.816 237.149 78.096C239.133 79.376 241.373 80.016 243.869 80.016C246.301 80.016 248.509 79.376 250.493 78.096C252.477 76.752 254.045 74.96 255.197 72.72C256.413 70.416 257.021 67.792 257.021 64.848C257.021 61.968 256.413 59.376 255.197 57.072C254.045 54.768 252.477 52.976 250.493 51.696C248.509 50.416 246.301 49.776 243.869 49.776C241.373 49.776 239.133 50.448 237.149 51.792C235.165 53.072 233.597 54.864 232.445 57.168C231.293 59.408 230.717 62 230.717 64.944Z" fill="#005EAA"/>
<path d="M244 38.8323C243.956 38.8321 243.913 38.832 243.869 38.832C239.773 38.832 236.093 39.536 232.829 40.944C229.565 42.288 226.781 44.176 224.477 46.608C222.237 49.04 220.509 51.824 219.293 54.96C218.077 58.096 217.469 61.424 217.469 64.944C217.469 68.4 218.077 71.696 219.293 74.832C220.509 77.968 222.237 80.752 224.477 83.184C226.781 85.616 229.565 87.536 232.829 88.944C236.093 90.288 239.773 90.96 243.869 90.96C243.913 90.96 243.956 90.96 244 90.9598C244 90.9598 248 90.96 248 85.4876C248 80.0152 244 80.0154 244 80.0154C243.956 80.0158 243.913 80.016 243.869 80.016C241.373 80.016 239.133 79.376 237.149 78.096C235.165 76.816 233.597 75.056 232.445 72.816C231.293 70.512 230.717 67.888 230.717 64.944C230.717 62 231.293 59.408 232.445 57.168C233.597 54.864 235.165 53.072 237.149 51.792C239.133 50.448 241.373 49.776 243.869 49.776C243.913 49.776 243.956 49.7762 244 49.7767C244 49.7767 248 49.776 248 44.5C248 39.224 244 38.8323 244 38.8323Z" fill="#179DFF"/>
<path d="M240 85.4876C240 90.96 244 90.9598 244 90.9598C244 90.9598 248 90.96 248 85.4876C248 80.0152 244 80.0154 244 80.0154C244 80.0154 240 80.0152 240 85.4876Z" fill="#65BEFF"/>
</svg>
