<?xml version="1.0" encoding="us-ascii" standalone="no"?><svg xmlns="http://www.w3.org/2000/svg" xmlns:xlink="http://www.w3.org/1999/xlink" contentStyleType="text/css" height="558px" preserveAspectRatio="none" style="width:1847px;height:558px;background:#FFFFFF;" version="1.1" viewBox="0 0 1847 558" width="1847px" zoomAndPan="magnify"><defs/><g><!--class dataset--><g id="elem_dataset"><rect codeLine="6" fill="#F1F1F1" height="154.4075" id="dataset" rx="2.5" ry="2.5" style="stroke:#181818;stroke-width:0.5;" width="246" x="809.5" y="183.2"/><ellipse cx="886.25" cy="199.2" fill="#ADD1B2" rx="11" ry="11" style="stroke:#181818;stroke-width:1.0;"/><path d="M886.3594,194.7313 Q885.4375,194.7313 884.7031,195.0438 Q883.9844,195.3563 883.4844,195.95 Q882.9844,196.5281 882.7031,197.4031 Q882.4375,198.2781 882.4375,199.3719 Q882.4375,200.8094 882.875,201.8563 Q883.3281,202.9031 884.1719,203.45 Q885.0313,203.9969 886.3438,203.9969 Q887.125,203.9969 887.8125,203.8719 Q888.5156,203.7313 889.5156,203.4188 L889.5156,205.2938 Q888.6563,205.6219 887.8906,205.7469 Q887.1406,205.8719 886.125,205.8719 Q884.2031,205.8719 882.8906,205.075 Q881.5938,204.2625 880.9375,202.7938 Q880.2813,201.3094 880.2813,199.3406 Q880.2813,197.9188 880.6719,196.7469 Q881.0781,195.5594 881.8594,194.6844 Q882.6406,193.8094 883.7813,193.3406 Q884.9219,192.8563 886.3906,192.8563 Q887.3438,192.8563 888.2344,193.0594 Q889.1406,193.2469 890.0781,193.7156 L889.25,195.4969 Q888.4688,195.1219 887.8125,194.9344 Q887.1563,194.7313 886.3594,194.7313 Z " fill="#000000"/><text fill="#000000" font-family="sans-serif" font-size="14" lengthAdjust="spacing" textLength="84" x="906.75" y="204.632">dcat:Dataset</text><line style="stroke:#181818;stroke-width:0.5;" x1="810.5" x2="1054.5" y1="215.2" y2="215.2"/><text fill="#000000" font-family="sans-serif" font-size="14" lengthAdjust="spacing" textLength="220" x="815.5" y="234.1659">dcterms:identifier xsd:string 1..1</text><text fill="#000000" font-family="sans-serif" font-size="14" lengthAdjust="spacing" textLength="234" x="815.5" y="253.2339">dcterms:description xsd:string 1..1</text><text fill="#000000" font-family="sans-serif" font-size="14" lengthAdjust="spacing" textLength="131" x="815.5" y="272.3018">dcat:version xsd:str</text><text fill="#000000" font-family="sans-serif" font-size="14" lengthAdjust="spacing" textLength="175" x="815.5" y="291.3697">dcterms:temporal xsd:any</text><text fill="#000000" font-family="sans-serif" font-size="14" lengthAdjust="spacing" textLength="159" x="815.5" y="310.4376">dcterms:spatial xsd:any</text><text fill="#000000" font-family="sans-serif" font-size="14" lengthAdjust="spacing" textLength="180" x="815.5" y="329.5055">dcterms:modified xsd:date</text></g><!--class catalog--><g id="elem_catalog"><rect codeLine="15" fill="#F1F1F1" height="97.2038" id="catalog" rx="2.5" ry="2.5" style="stroke:#181818;stroke-width:0.5;" width="232" x="816.5" y="7"/><ellipse cx="886.25" cy="23" fill="#ADD1B2" rx="11" ry="11" style="stroke:#181818;stroke-width:1.0;"/><path d="M886.3594,18.5313 Q885.4375,18.5313 884.7031,18.8438 Q883.9844,19.1563 883.4844,19.75 Q882.9844,20.3281 882.7031,21.2031 Q882.4375,22.0781 882.4375,23.1719 Q882.4375,24.6094 882.875,25.6563 Q883.3281,26.7031 884.1719,27.25 Q885.0313,27.7969 886.3438,27.7969 Q887.125,27.7969 887.8125,27.6719 Q888.5156,27.5313 889.5156,27.2188 L889.5156,29.0938 Q888.6563,29.4219 887.8906,29.5469 Q887.1406,29.6719 886.125,29.6719 Q884.2031,29.6719 882.8906,28.875 Q881.5938,28.0625 880.9375,26.5938 Q880.2813,25.1094 880.2813,23.1406 Q880.2813,21.7188 880.6719,20.5469 Q881.0781,19.3594 881.8594,18.4844 Q882.6406,17.6094 883.7813,17.1406 Q884.9219,16.6563 886.3906,16.6563 Q887.3438,16.6563 888.2344,16.8594 Q889.1406,17.0469 890.0781,17.5156 L889.25,19.2969 Q888.4688,18.9219 887.8125,18.7344 Q887.1563,18.5313 886.3594,18.5313 Z " fill="#000000"/><text fill="#000000" font-family="sans-serif" font-size="14" lengthAdjust="spacing" textLength="84" x="906.75" y="28.432">dcat:Catalog</text><line style="stroke:#181818;stroke-width:0.5;" x1="817.5" x2="1047.5" y1="39" y2="39"/><text fill="#000000" font-family="sans-serif" font-size="14" lengthAdjust="spacing" textLength="184" x="822.5" y="57.9659">dcterms:title xsd:string 1..1</text><text fill="#000000" font-family="sans-serif" font-size="14" lengthAdjust="spacing" textLength="220" x="822.5" y="77.0339">dcterms:identifier xsd:string 1..1</text><text fill="#000000" font-family="sans-serif" font-size="14" lengthAdjust="spacing" textLength="206" x="822.5" y="96.1018">dcterms:description xsd:string</text></g><!--class agent--><g id="elem_agent"><rect codeLine="21" fill="#FFFFFF" height="72.4799" id="agent" rx="2.5" ry="2.5" style="stroke:#181818;stroke-width:0.5;" width="151" x="7" y="448.04"/><ellipse cx="32.8" cy="470.746" fill="#ADD1B2" rx="11" ry="11" style="stroke:#181818;stroke-width:1.0;"/><path d="M32.9094,466.2773 Q31.9875,466.2773 31.2531,466.5898 Q30.5344,466.9023 30.0344,467.496 Q29.5344,468.0741 29.2531,468.9491 Q28.9875,469.8241 28.9875,470.9179 Q28.9875,472.3554 29.425,473.4023 Q29.8781,474.4491 30.7219,474.996 Q31.5812,475.5429 32.8938,475.5429 Q33.675,475.5429 34.3625,475.4179 Q35.0656,475.2773 36.0656,474.9648 L36.0656,476.8398 Q35.2063,477.1679 34.4406,477.2929 Q33.6906,477.4179 32.675,477.4179 Q30.7531,477.4179 29.4406,476.621 Q28.1437,475.8085 27.4875,474.3398 Q26.8312,472.8554 26.8312,470.8866 Q26.8312,469.4648 27.2219,468.2929 Q27.6281,467.1054 28.4094,466.2304 Q29.1906,465.3554 30.3312,464.8866 Q31.4719,464.4023 32.9406,464.4023 Q33.8938,464.4023 34.7844,464.6054 Q35.6906,464.7929 36.6281,465.2616 L35.8,467.0429 Q35.0188,466.6679 34.3625,466.4804 Q33.7063,466.2773 32.9094,466.2773 Z " fill="#000000"/><text fill="#000000" font-family="sans-serif" font-size="12" font-style="italic" lengthAdjust="spacing" textLength="99" x="47.2" y="465.8681">&#171;BlankNodeOrIRI&#187;</text><text fill="#000000" font-family="sans-serif" font-size="14" lengthAdjust="spacing" textLength="70" x="61.7" y="484.35">foaf:Agent</text><line style="stroke:#181818;stroke-width:0.5;" x1="8" x2="157" y1="493.452" y2="493.452"/><text fill="#000000" font-family="sans-serif" font-size="14" lengthAdjust="spacing" textLength="139" x="13" y="512.418">foaf:name xsd:string</text></g><!--class license--><g id="elem_license"><rect codeLine="26" fill="#FFFFFF" height="72.4799" id="license" rx="2.5" ry="2.5" style="stroke:#181818;stroke-width:0.5;" width="168" x="1375.5" y="448.04"/><ellipse cx="1402.65" cy="470.746" fill="#ADD1B2" rx="11" ry="11" style="stroke:#181818;stroke-width:1.0;"/><path d="M1402.7594,466.2773 Q1401.8375,466.2773 1401.1031,466.5898 Q1400.3844,466.9023 1399.8844,467.496 Q1399.3844,468.0741 1399.1031,468.9491 Q1398.8375,469.8241 1398.8375,470.9179 Q1398.8375,472.3554 1399.275,473.4023 Q1399.7281,474.4491 1400.5719,474.996 Q1401.4313,475.5429 1402.7438,475.5429 Q1403.525,475.5429 1404.2125,475.4179 Q1404.9156,475.2773 1405.9156,474.9648 L1405.9156,476.8398 Q1405.0563,477.1679 1404.2906,477.2929 Q1403.5406,477.4179 1402.525,477.4179 Q1400.6031,477.4179 1399.2906,476.621 Q1397.9938,475.8085 1397.3375,474.3398 Q1396.6813,472.8554 1396.6813,470.8866 Q1396.6813,469.4648 1397.0719,468.2929 Q1397.4781,467.1054 1398.2594,466.2304 Q1399.0406,465.3554 1400.1813,464.8866 Q1401.3219,464.4023 1402.7906,464.4023 Q1403.7438,464.4023 1404.6344,464.6054 Q1405.5406,464.7929 1406.4781,465.2616 L1405.65,467.0429 Q1404.8688,466.6679 1404.2125,466.4804 Q1403.5563,466.2773 1402.7594,466.2773 Z " fill="#000000"/><text fill="#000000" font-family="sans-serif" font-size="12" font-style="italic" lengthAdjust="spacing" textLength="99" x="1424.35" y="465.8681">&#171;BlankNodeOrIRI&#187;</text><text fill="#000000" font-family="sans-serif" font-size="14" lengthAdjust="spacing" textLength="109" x="1419.35" y="484.35">dcterms:License</text><line style="stroke:#181818;stroke-width:0.5;" x1="1376.5" x2="1542.5" y1="493.452" y2="493.452"/><text fill="#000000" font-family="sans-serif" font-size="14" lengthAdjust="spacing" textLength="156" x="1381.5" y="512.418">dcterms:title xsd:string</text></g><!--class kind--><g id="elem_kind"><rect codeLine="30" fill="#FFFFFF" height="72.4799" id="kind" rx="2.5" ry="2.5" style="stroke:#181818;stroke-width:0.5;" width="169" x="957" y="448.04"/><ellipse cx="990.9" cy="470.746" fill="#ADD1B2" rx="11" ry="11" style="stroke:#181818;stroke-width:1.0;"/><path d="M991.0094,466.2773 Q990.0875,466.2773 989.3531,466.5898 Q988.6344,466.9023 988.1344,467.496 Q987.6344,468.0741 987.3531,468.9491 Q987.0875,469.8241 987.0875,470.9179 Q987.0875,472.3554 987.525,473.4023 Q987.9781,474.4491 988.8219,474.996 Q989.6813,475.5429 990.9938,475.5429 Q991.775,475.5429 992.4625,475.4179 Q993.1656,475.2773 994.1656,474.9648 L994.1656,476.8398 Q993.3063,477.1679 992.5406,477.2929 Q991.7906,477.4179 990.775,477.4179 Q988.8531,477.4179 987.5406,476.621 Q986.2438,475.8085 985.5875,474.3398 Q984.9313,472.8554 984.9313,470.8866 Q984.9313,469.4648 985.3219,468.2929 Q985.7281,467.1054 986.5094,466.2304 Q987.2906,465.3554 988.4313,464.8866 Q989.5719,464.4023 991.0406,464.4023 Q991.9938,464.4023 992.8844,464.6054 Q993.7906,464.7929 994.7281,465.2616 L993.9,467.0429 Q993.1188,466.6679 992.4625,466.4804 Q991.8063,466.2773 991.0094,466.2773 Z " fill="#000000"/><text fill="#000000" font-family="sans-serif" font-size="12" font-style="italic" lengthAdjust="spacing" textLength="99" x="1007.1" y="465.8681">&#171;BlankNodeOrIRI&#187;</text><text fill="#000000" font-family="sans-serif" font-size="14" lengthAdjust="spacing" textLength="72" x="1020.6" y="484.35">vcard:Kind</text><line style="stroke:#181818;stroke-width:0.5;" x1="958" x2="1125" y1="493.452" y2="493.452"/><text fill="#000000" font-family="sans-serif" font-size="14" lengthAdjust="spacing" textLength="157" x="963" y="512.418">vcard:hasEmail xsd:any</text></g><!--class location--><g id="elem_location"><rect codeLine="34" fill="#FFFFFF" height="72.4799" id="location" rx="2.5" ry="2.5" style="stroke:#181818;stroke-width:0.5;" width="180" x="1160.5" y="448.04"/><ellipse cx="1190.35" cy="470.746" fill="#ADD1B2" rx="11" ry="11" style="stroke:#181818;stroke-width:1.0;"/><path d="M1190.4594,466.2773 Q1189.5375,466.2773 1188.8031,466.5898 Q1188.0844,466.9023 1187.5844,467.496 Q1187.0844,468.0741 1186.8031,468.9491 Q1186.5375,469.8241 1186.5375,470.9179 Q1186.5375,472.3554 1186.975,473.4023 Q1187.4281,474.4491 1188.2719,474.996 Q1189.1313,475.5429 1190.4438,475.5429 Q1191.225,475.5429 1191.9125,475.4179 Q1192.6156,475.2773 1193.6156,474.9648 L1193.6156,476.8398 Q1192.7563,477.1679 1191.9906,477.2929 Q1191.2406,477.4179 1190.225,477.4179 Q1188.3031,477.4179 1186.9906,476.621 Q1185.6938,475.8085 1185.0375,474.3398 Q1184.3813,472.8554 1184.3813,470.8866 Q1184.3813,469.4648 1184.7719,468.2929 Q1185.1781,467.1054 1185.9594,466.2304 Q1186.7406,465.3554 1187.8813,464.8866 Q1189.0219,464.4023 1190.4906,464.4023 Q1191.4438,464.4023 1192.3344,464.6054 Q1193.2406,464.7929 1194.1781,465.2616 L1193.35,467.0429 Q1192.5688,466.6679 1191.9125,466.4804 Q1191.2563,466.2773 1190.4594,466.2773 Z " fill="#000000"/><text fill="#000000" font-family="sans-serif" font-size="12" font-style="italic" lengthAdjust="spacing" textLength="99" x="1215.65" y="465.8681">&#171;BlankNodeOrIRI&#187;</text><text fill="#000000" font-family="sans-serif" font-size="14" lengthAdjust="spacing" textLength="115" x="1207.65" y="484.35">dcterms:Location</text><line style="stroke:#181818;stroke-width:0.5;" x1="1161.5" x2="1339.5" y1="493.452" y2="493.452"/><text fill="#000000" font-family="sans-serif" font-size="14" lengthAdjust="spacing" textLength="168" x="1166.5" y="512.418">skos:prefLabel xsd:string</text></g><!--class distribution--><g id="elem_distribution"><rect codeLine="38" fill="#F1F1F1" height="135.3396" id="distribution" rx="2.5" ry="2.5" style="stroke:#181818;stroke-width:0.5;" width="233" x="193" y="416.61"/><ellipse cx="248.75" cy="432.61" fill="#ADD1B2" rx="11" ry="11" style="stroke:#181818;stroke-width:1.0;"/><path d="M248.8594,428.1413 Q247.9375,428.1413 247.2031,428.4538 Q246.4844,428.7663 245.9844,429.36 Q245.4844,429.9381 245.2031,430.8131 Q244.9375,431.6881 244.9375,432.7819 Q244.9375,434.2194 245.375,435.2663 Q245.8281,436.3131 246.6719,436.86 Q247.5313,437.4069 248.8438,437.4069 Q249.625,437.4069 250.3125,437.2819 Q251.0156,437.1413 252.0156,436.8288 L252.0156,438.7038 Q251.1563,439.0319 250.3906,439.1569 Q249.6406,439.2819 248.625,439.2819 Q246.7031,439.2819 245.3906,438.485 Q244.0938,437.6725 243.4375,436.2038 Q242.7813,434.7194 242.7813,432.7506 Q242.7813,431.3288 243.1719,430.1569 Q243.5781,428.9694 244.3594,428.0944 Q245.1406,427.2194 246.2813,426.7506 Q247.4219,426.2663 248.8906,426.2663 Q249.8438,426.2663 250.7344,426.4694 Q251.6406,426.6569 252.5781,427.1256 L251.75,428.9069 Q250.9688,428.5319 250.3125,428.3444 Q249.6563,428.1413 248.8594,428.1413 Z " fill="#000000"/><text fill="#000000" font-family="sans-serif" font-size="14" lengthAdjust="spacing" textLength="113" x="269.25" y="438.042">dcat:Distribution</text><line style="stroke:#181818;stroke-width:0.5;" x1="194" x2="425" y1="448.61" y2="448.61"/><text fill="#000000" font-family="sans-serif" font-size="14" lengthAdjust="spacing" textLength="220" x="199" y="467.5759">dcterms:identifier xsd:string 1..1</text><text fill="#000000" font-family="sans-serif" font-size="14" lengthAdjust="spacing" textLength="221" x="199" y="486.6439">dcat:accessURL rdf:Resource 1..1</text><text fill="#000000" font-family="sans-serif" font-size="14" lengthAdjust="spacing" textLength="159" x="199" y="505.7118">dcterms:format xsd:any</text><text fill="#000000" font-family="sans-serif" font-size="14" lengthAdjust="spacing" textLength="153" x="199" y="524.7797">dcat:version xsd:string</text><text fill="#000000" font-family="sans-serif" font-size="14" lengthAdjust="spacing" textLength="180" x="199" y="543.8476">dcterms:modified xsd:date</text></g><!--class concept--><g id="elem_concept"><rect codeLine="47" fill="#F1F1F1" height="135.3396" id="concept" rx="2.5" ry="2.5" style="stroke:#181818;stroke-width:0.5;" width="232" x="460.5" y="416.61"/><ellipse cx="528.25" cy="432.61" fill="#ADD1B2" rx="11" ry="11" style="stroke:#181818;stroke-width:1.0;"/><path d="M528.3594,428.1413 Q527.4375,428.1413 526.7031,428.4538 Q525.9844,428.7663 525.4844,429.36 Q524.9844,429.9381 524.7031,430.8131 Q524.4375,431.6881 524.4375,432.7819 Q524.4375,434.2194 524.875,435.2663 Q525.3281,436.3131 526.1719,436.86 Q527.0313,437.4069 528.3438,437.4069 Q529.125,437.4069 529.8125,437.2819 Q530.5156,437.1413 531.5156,436.8288 L531.5156,438.7038 Q530.6563,439.0319 529.8906,439.1569 Q529.1406,439.2819 528.125,439.2819 Q526.2031,439.2819 524.8906,438.485 Q523.5938,437.6725 522.9375,436.2038 Q522.2813,434.7194 522.2813,432.7506 Q522.2813,431.3288 522.6719,430.1569 Q523.0781,428.9694 523.8594,428.0944 Q524.6406,427.2194 525.7813,426.7506 Q526.9219,426.2663 528.3906,426.2663 Q529.3438,426.2663 530.2344,426.4694 Q531.1406,426.6569 532.0781,427.1256 L531.25,428.9069 Q530.4688,428.5319 529.8125,428.3444 Q529.1563,428.1413 528.3594,428.1413 Z " fill="#000000"/><text fill="#000000" font-family="sans-serif" font-size="14" lengthAdjust="spacing" textLength="88" x="548.75" y="438.042">skos:Concept</text><line style="stroke:#181818;stroke-width:0.5;" x1="461.5" x2="691.5" y1="448.61" y2="448.61"/><text fill="#000000" font-family="sans-serif" font-size="14" lengthAdjust="spacing" textLength="220" x="466.5" y="467.5759">dcterms:identifier xsd:string 1..1</text><text fill="#000000" font-family="sans-serif" font-size="14" lengthAdjust="spacing" textLength="196" x="466.5" y="486.6439">skos:prefLabel xsd:string 1..1</text><text fill="#000000" font-family="sans-serif" font-size="14" lengthAdjust="spacing" textLength="169" x="466.5" y="505.7118">skos:definition xsd:string</text><text fill="#000000" font-family="sans-serif" font-size="14" lengthAdjust="spacing" textLength="161" x="466.5" y="524.7797">skos:example xsd:string</text><text fill="#000000" font-family="sans-serif" font-size="14" lengthAdjust="spacing" textLength="157" x="466.5" y="543.8476">skos:altLabel xsd:string</text></g><!--class metric--><g id="elem_metric"><rect codeLine="56" fill="#F1F1F1" height="135.3396" id="metric" rx="2.5" ry="2.5" style="stroke:#181818;stroke-width:0.5;" width="255" x="1585" y="192.74"/><ellipse cx="1672.25" cy="208.74" fill="#ADD1B2" rx="11" ry="11" style="stroke:#181818;stroke-width:1.0;"/><path d="M1672.3594,204.2713 Q1671.4375,204.2713 1670.7031,204.5838 Q1669.9844,204.8963 1669.4844,205.49 Q1668.9844,206.0681 1668.7031,206.9431 Q1668.4375,207.8181 1668.4375,208.9119 Q1668.4375,210.3494 1668.875,211.3963 Q1669.3281,212.4431 1670.1719,212.99 Q1671.0313,213.5369 1672.3438,213.5369 Q1673.125,213.5369 1673.8125,213.4119 Q1674.5156,213.2713 1675.5156,212.9588 L1675.5156,214.8338 Q1674.6563,215.1619 1673.8906,215.2869 Q1673.1406,215.4119 1672.125,215.4119 Q1670.2031,215.4119 1668.8906,214.615 Q1667.5938,213.8025 1666.9375,212.3338 Q1666.2813,210.8494 1666.2813,208.8806 Q1666.2813,207.4588 1666.6719,206.2869 Q1667.0781,205.0994 1667.8594,204.2244 Q1668.6406,203.3494 1669.7813,202.8806 Q1670.9219,202.3963 1672.3906,202.3963 Q1673.3438,202.3963 1674.2344,202.5994 Q1675.1406,202.7869 1676.0781,203.2556 L1675.25,205.0369 Q1674.4688,204.6619 1673.8125,204.4744 Q1673.1563,204.2713 1672.3594,204.2713 Z " fill="#000000"/><text fill="#000000" font-family="sans-serif" font-size="14" lengthAdjust="spacing" textLength="72" x="1692.75" y="214.172">dqv:Metric</text><line style="stroke:#181818;stroke-width:0.5;" x1="1586" x2="1839" y1="224.74" y2="224.74"/><text fill="#000000" font-family="sans-serif" font-size="14" lengthAdjust="spacing" textLength="220" x="1591" y="243.7059">dcterms:identifier xsd:string 1..1</text><text fill="#000000" font-family="sans-serif" font-size="14" lengthAdjust="spacing" textLength="196" x="1591" y="262.7739">skos:prefLabel xsd:string 1..1</text><text fill="#000000" font-family="sans-serif" font-size="14" lengthAdjust="spacing" textLength="169" x="1591" y="281.8418">skos:definition xsd:string</text><text fill="#000000" font-family="sans-serif" font-size="14" lengthAdjust="spacing" textLength="243" x="1591" y="300.9097">dqv:expectedDataType rdf:Resource</text><text fill="#000000" font-family="sans-serif" font-size="14" lengthAdjust="spacing" textLength="204" x="1591" y="319.9776">dqv:inDimension rdf:Resource</text></g><!--class periodoftime--><g id="elem_periodoftime"><rect codeLine="64" fill="#FFFFFF" height="91.5479" id="periodoftime" rx="2.5" ry="2.5" style="stroke:#181818;stroke-width:0.5;" width="195" x="727" y="438.51"/><ellipse cx="747.4" cy="461.216" fill="#ADD1B2" rx="11" ry="11" style="stroke:#181818;stroke-width:1.0;"/><path d="M747.5094,456.7473 Q746.5875,456.7473 745.8531,457.0598 Q745.1344,457.3723 744.6344,457.966 Q744.1344,458.5441 743.8531,459.4191 Q743.5875,460.2941 743.5875,461.3879 Q743.5875,462.8254 744.025,463.8723 Q744.4781,464.9191 745.3219,465.466 Q746.1813,466.0129 747.4938,466.0129 Q748.275,466.0129 748.9625,465.8879 Q749.6656,465.7473 750.6656,465.4348 L750.6656,467.3098 Q749.8063,467.6379 749.0406,467.7629 Q748.2906,467.8879 747.275,467.8879 Q745.3531,467.8879 744.0406,467.091 Q742.7438,466.2785 742.0875,464.8098 Q741.4313,463.3254 741.4313,461.3566 Q741.4313,459.9348 741.8219,458.7629 Q742.2281,457.5754 743.0094,456.7004 Q743.7906,455.8254 744.9313,455.3566 Q746.0719,454.8723 747.5406,454.8723 Q748.4938,454.8723 749.3844,455.0754 Q750.2906,455.2629 751.2281,455.7316 L750.4,457.5129 Q749.6188,457.1379 748.9625,456.9504 Q748.3063,456.7473 747.5094,456.7473 Z " fill="#000000"/><text fill="#000000" font-family="sans-serif" font-size="12" font-style="italic" lengthAdjust="spacing" textLength="99" x="788.6" y="456.3381">&#171;BlankNodeOrIRI&#187;</text><text fill="#000000" font-family="sans-serif" font-size="14" lengthAdjust="spacing" textLength="151" x="762.6" y="474.82">dcterms:PeriodOfTime</text><line style="stroke:#181818;stroke-width:0.5;" x1="728" x2="921" y1="483.922" y2="483.922"/><text fill="#000000" font-family="sans-serif" font-size="14" lengthAdjust="spacing" textLength="183" x="733" y="502.888">time:hasBeginning xsd:any</text><text fill="#000000" font-family="sans-serif" font-size="14" lengthAdjust="spacing" textLength="139" x="733" y="521.9559">time:hasEnd xsd:any</text></g><!--class qualitymeasurement--><g id="elem_qualitymeasurement"><rect codeLine="69" fill="#F1F1F1" height="97.2038" id="qualitymeasurement" rx="2.5" ry="2.5" style="stroke:#181818;stroke-width:0.5;" width="257" x="1483" y="7"/><ellipse cx="1522.3" cy="23" fill="#ADD1B2" rx="11" ry="11" style="stroke:#181818;stroke-width:1.0;"/><path d="M1522.4094,18.5313 Q1521.4875,18.5313 1520.7531,18.8438 Q1520.0344,19.1563 1519.5344,19.75 Q1519.0344,20.3281 1518.7531,21.2031 Q1518.4875,22.0781 1518.4875,23.1719 Q1518.4875,24.6094 1518.925,25.6563 Q1519.3781,26.7031 1520.2219,27.25 Q1521.0813,27.7969 1522.3938,27.7969 Q1523.175,27.7969 1523.8625,27.6719 Q1524.5656,27.5313 1525.5656,27.2188 L1525.5656,29.0938 Q1524.7063,29.4219 1523.9406,29.5469 Q1523.1906,29.6719 1522.175,29.6719 Q1520.2531,29.6719 1518.9406,28.875 Q1517.6438,28.0625 1516.9875,26.5938 Q1516.3313,25.1094 1516.3313,23.1406 Q1516.3313,21.7188 1516.7219,20.5469 Q1517.1281,19.3594 1517.9094,18.4844 Q1518.6906,17.6094 1519.8313,17.1406 Q1520.9719,16.6563 1522.4406,16.6563 Q1523.3938,16.6563 1524.2844,16.8594 Q1525.1906,17.0469 1526.1281,17.5156 L1525.3,19.2969 Q1524.5188,18.9219 1523.8625,18.7344 Q1523.2063,18.5313 1522.4094,18.5313 Z " fill="#000000"/><text fill="#000000" font-family="sans-serif" font-size="14" lengthAdjust="spacing" textLength="171" x="1541.7" y="28.432">dqv:QualityMeasurement</text><line style="stroke:#181818;stroke-width:0.5;" x1="1484" x2="1739" y1="39" y2="39"/><text fill="#000000" font-family="sans-serif" font-size="14" lengthAdjust="spacing" textLength="220" x="1489" y="57.9659">dcterms:identifier xsd:string 1..1</text><text fill="#000000" font-family="sans-serif" font-size="14" lengthAdjust="spacing" textLength="120" x="1489" y="77.0339">dqv:value xsd:any</text><text fill="#000000" font-family="sans-serif" font-size="14" lengthAdjust="spacing" textLength="245" x="1489" y="96.1018">prov:generatedAtTime xsd:dateTime</text></g><!--link dataset to distribution--><g id="link_dataset_distribution"><path codeLine="76" d="M809.07,294.86 C709.07,323.31 565.28,367.33 443.5,416.61 C437.84,418.9 437.5865,418.9241 431.8065,421.4541 " fill="none" id="dataset-to-distribution" style="stroke:#181818;stroke-width:1.0;"/><polygon fill="#181818" points="426.31,423.86,436.1587,423.9155,430.8904,421.8551,432.9508,416.5868,426.31,423.86" style="stroke:#181818;stroke-width:1.0;"/><text fill="#000000" font-family="sans-serif" font-size="13" lengthAdjust="spacing" textLength="99" x="577.5" y="382.507">dcat:distribution</text></g><!--link dataset to dataset--><g id="link_dataset_dataset"><path codeLine="77" d="M1055.72,240.07 C1076.3,242.91 1090.5,249.69 1090.5,260.41 C1090.5,271.12 1082.2437,277.0798 1061.6637,279.9198 " fill="none" id="dataset-to-dataset" style="stroke:#181818;stroke-width:1.0;"/><polygon fill="#181818" points="1055.72,280.74,1065.1823,283.4721,1060.6731,280.0565,1064.0887,275.5472,1055.72,280.74" style="stroke:#181818;stroke-width:1.0;"/><text fill="#000000" font-family="sans-serif" font-size="13" lengthAdjust="spacing" textLength="132" x="1096.5" y="265.807">prov:wasDerivedFrom</text></g><!--link dataset to concept--><g id="link_dataset_concept"><path codeLine="78" d="M809.49,338.07 C768.69,363.5 728.712,388.4164 689.162,413.0664 " fill="none" id="dataset-to-concept" style="stroke:#181818;stroke-width:1.0;"/><polygon fill="#181818" points="684.07,416.24,693.8237,414.8742,688.3133,413.5953,689.5922,408.0849,684.07,416.24" style="stroke:#181818;stroke-width:1.0;"/><text fill="#000000" font-family="sans-serif" font-size="13" lengthAdjust="spacing" textLength="68" x="755.5" y="382.507">dcat:theme</text></g><!--link dataset to agent--><g id="link_dataset_agent"><path codeLine="79" d="M809.1,270.79 C655.19,286.01 386.63,324.32 175.5,416.61 C157.48,424.49 144.2911,432.6415 129.0011,444.1015 " fill="none" id="dataset-to-agent" style="stroke:#181818;stroke-width:1.0;"/><polygon fill="#181818" points="124.2,447.7,133.8007,445.503,128.2009,444.7013,129.0027,439.1015,124.2,447.7" style="stroke:#181818;stroke-width:1.0;"/><text fill="#000000" font-family="sans-serif" font-size="13" lengthAdjust="spacing" textLength="85" x="294.5" y="382.507">dcat:publisher</text></g><!--link dataset to kind--><g id="link_dataset_kind"><path codeLine="80" d="M979.88,338.06 C985.38,347.88 990.72,357.89 995.5,367.61 C1008.37,393.79 1018.3852,418.9001 1026.9352,442.1001 " fill="none" id="dataset-to-kind" style="stroke:#181818;stroke-width:1.0;"/><polygon fill="#181818" points="1029.01,447.73,1029.651,437.902,1027.281,443.0385,1022.1446,440.6684,1029.01,447.73" style="stroke:#181818;stroke-width:1.0;"/><text fill="#000000" font-family="sans-serif" font-size="13" lengthAdjust="spacing" textLength="106" x="1005.5" y="382.507">dcat:contactPoint</text></g><!--link dataset to license--><g id="link_dataset_license"><path codeLine="81" d="M1055.57,296.01 C1142.65,322.94 1260.68,364.46 1357.5,416.61 C1374.64,425.84 1387.6219,433.7456 1403.6419,444.3156 " fill="none" id="dataset-to-license" style="stroke:#181818;stroke-width:1.0;"/><polygon fill="#181818" points="1408.65,447.62,1403.3407,439.3247,1404.4766,444.8664,1398.9349,446.0022,1408.65,447.62" style="stroke:#181818;stroke-width:1.0;"/><text fill="#000000" font-family="sans-serif" font-size="13" lengthAdjust="spacing" textLength="96" x="1292.5" y="382.507">dcterms:License</text></g><!--link dataset to periodoftime--><g id="link_dataset_periodoftime"><path codeLine="82" d="M895.18,338.07 C878.9,371.52 863.0061,404.1752 849.0061,432.9352 " fill="none" id="dataset-to-periodoftime" style="stroke:#181818;stroke-width:1.0;"/><polygon fill="#181818" points="846.38,438.33,853.9157,431.9886,848.5684,433.8344,846.7226,428.4871,846.38,438.33" style="stroke:#181818;stroke-width:1.0;"/><text fill="#000000" font-family="sans-serif" font-size="13" lengthAdjust="spacing" textLength="107" x="879.5" y="382.507">dcterms:temporal</text></g><!--link dataset to location--><g id="link_dataset_location"><path codeLine="83" d="M1055.7,326 C1077.79,338.98 1100.22,353.11 1120.5,367.61 C1154.41,391.86 1185.2046,419.4222 1210.3846,443.5122 " fill="none" id="dataset-to-location" style="stroke:#181818;stroke-width:1.0;"/><polygon fill="#181818" points="1214.72,447.66,1210.982,438.5481,1211.1071,444.2035,1205.4517,444.3286,1214.72,447.66" style="stroke:#181818;stroke-width:1.0;"/><text fill="#000000" font-family="sans-serif" font-size="13" lengthAdjust="spacing" textLength="91" x="1144.5" y="382.507">dcterms:spatial</text></g><!--link qualitymeasurement to dataset--><g id="link_qualitymeasurement_dataset"><path codeLine="85" d="M1482.59,95.11 C1359.89,131.75 1182.299,184.7928 1061.509,220.8728 " fill="none" id="qualitymeasurement-to-dataset" style="stroke:#181818;stroke-width:1.0;"/><polygon fill="#181818" points="1055.76,222.59,1065.5283,223.8468,1060.5508,221.159,1063.2387,216.1815,1055.76,222.59" style="stroke:#181818;stroke-width:1.0;"/><text fill="#000000" font-family="sans-serif" font-size="13" lengthAdjust="spacing" textLength="106" x="1334.5" y="149.097">dqv:computedOn</text></g><!--link qualitymeasurement to metric--><g id="link_qualitymeasurement_metric"><path codeLine="86" d="M1637.91,104.4 C1643.17,114.21 1648.59,124.5 1653.5,134.2 C1662.99,152.97 1670.3236,168.1019 1679.2436,187.0419 " fill="none" id="qualitymeasurement-to-metric" style="stroke:#181818;stroke-width:1.0;"/><polygon fill="#181818" points="1681.8,192.47,1681.5841,182.6235,1679.6696,187.9466,1674.3466,186.0321,1681.8,192.47" style="stroke:#181818;stroke-width:1.0;"/><text fill="#000000" font-family="sans-serif" font-size="13" lengthAdjust="spacing" textLength="101" x="1662.5" y="149.097">dqv:inDimension</text></g><!--link catalog to license--><g id="link_catalog_license"><path codeLine="88" d="M1048.94,91.26 C1108.13,112.22 1179.24,142.79 1235.5,183.2 C1324.1,246.85 1335.32,277.97 1397.5,367.61 C1415.16,393.07 1428.9154,418.7394 1440.4054,442.2494 " fill="none" id="catalog-to-license" style="stroke:#181818;stroke-width:1.0;"/><polygon fill="#181818" points="1443.04,447.64,1442.6819,437.7977,1440.8445,443.1478,1435.4944,441.3104,1443.04,447.64" style="stroke:#181818;stroke-width:1.0;"/><text fill="#000000" font-family="sans-serif" font-size="13" lengthAdjust="spacing" textLength="96" x="1378.5" y="265.807">dcterms:License</text></g><!--link catalog to agent--><g id="link_catalog_agent"><path codeLine="89" d="M816.24,101.5 C676.97,157.02 438.31,257.75 245.5,367.61 C203.74,391.4 164.2329,419.6741 132.3729,443.9441 " fill="none" id="catalog-to-agent" style="stroke:#181818;stroke-width:1.0;"/><polygon fill="#181818" points="127.6,447.58,137.1833,445.3082,131.5774,444.5501,132.3354,438.9443,127.6,447.58" style="stroke:#181818;stroke-width:1.0;"/><text fill="#000000" font-family="sans-serif" font-size="13" lengthAdjust="spacing" textLength="85" x="614.5" y="265.807">dcat:publisher</text></g><!--link catalog to dataset--><g id="link_catalog_dataset"><path codeLine="90" d="M932.5,104.66 C932.5,127.97 932.5,150.54 932.5,176.75 " fill="none" id="catalog-to-dataset" style="stroke:#181818;stroke-width:1.0;"/><polygon fill="#181818" points="932.5,182.75,936.5,173.75,932.5,177.75,928.5,173.75,932.5,182.75" style="stroke:#181818;stroke-width:1.0;"/><text fill="#000000" font-family="sans-serif" font-size="13" lengthAdjust="spacing" textLength="81" x="933.5" y="149.097">dcat:resource</text></g><!--SRC=[lLNRJXin47tVhrZb7IHULmY9IokXGg68Vi34dasih2_Ota1KzTyxjdU3dSrIeKhDapDpzdZEtBmM76kKnkzgYNA9rbLk8vG12x9c7JXN_wfg-bq1swoixXM_rfssv-TN7QZDTytnmTu-tLvSrAzhuR7wNLNfimLdu9iRyE3GBsfmDK_dWP0pZrQwXW9GNhG2RVtcUEEy5MfLdvsUdXKmZevPORpGQWP7jsqf_WnG47XIgIrqqGbgLpYT0IzcV5Bp41wFJj8mqNXDkZgzYXfPEfSIlV0TVgZkdvAGnTDgQ9lB5P75Q22SwccjKdWHh43ceLM5k7JhdM2e74R6BfrdEUSaPxHR1fOttuJYaP6wZS_I9UmQt1S9uhqyHsBKb7bAImfo-3DBwpRQDSPYUmTBx8w7cTfN1FkotrFppF3PHYO-O0oT-_bqLrlUDa_eT6yPJWlTQYl17xJZjC53n1-tQYOeYhxMYg59tS7I-NCoPbDt0E7O2YNyaM2Z6zz0ch93zZxe_AGkUM5Ujiqzafb55J8U_xU840I-6QJxUDXnppk3HKttAA5kXAIP2IG5ODh4ZsY5vW_jCtqGjPbeqAqdmsmp1sSOaIjS2QM2YBnjHkyNnO-D3mNueuTE-DqzWkijod5tl2IpV3T_ij-9UWjTZqKunkfjGri9BNKdl_H1whvRmvzOwV6bE3cvA2Uk6UOoDovA-70cPBph5TmDPN6B_AlLiiIE0p2o-ZNfB25fWpR9R_fb9zmQROc96spa84uFp3zgGNaiOEFgR2QBDOSL9M_UUsDylWuunqsN8OUtR55LHqfuaA9G9AQbwQaO3vJ9cI-66Hi-o3gQBXbUlBz9p65pISqnUP01PeUneHl_0000]--></g></svg>